<svg width="164" height="96" viewBox="0 0 164 96" fill="none" xmlns="http://www.w3.org/2000/svg">
<g clip-path="url(#clip0_200_235)">
<path d="M93.9398 45.2453L99.1739 42.2548L107.328 46.9092C108.15 47.3805 108.562 47.4424 108.906 47.4424C109.274 47.4424 109.621 47.4011 110.485 46.9092L118.683 42.2548L123.896 45.2453L109.728 53.3176C109.36 53.5314 109.123 53.6164 108.906 53.6164C108.69 53.6164 108.452 53.5288 108.084 53.3176L93.9398 45.2453ZM109.731 43.3856C109.363 43.5994 109.125 43.6844 108.909 43.6844C108.692 43.6844 108.455 43.5994 108.087 43.3856L102.595 40.2896L108.087 37.1729C108.458 36.9591 108.695 36.8767 108.909 36.8767C109.123 36.8767 109.405 36.9617 109.775 37.1729L115.226 40.2896L109.733 43.3856H109.731ZM84.8571 50.4122L90.1356 47.4037L107.33 57.2482C108.197 57.7375 108.564 57.7813 108.909 57.7813C109.277 57.7813 109.624 57.7375 110.487 57.2482L127.706 47.4243L132.961 50.4147L109.731 63.654C109.363 63.8678 109.125 63.9528 108.909 63.9528C108.692 63.9528 108.455 63.8678 108.087 63.654L84.8571 50.4147V50.4122ZM50.7885 68.007C51.6548 68.4964 51.9992 68.5402 52.3671 68.5402C52.7115 68.5402 53.082 68.4964 53.9457 68.007L80.6823 52.7818L107.33 68.007C108.197 68.4964 108.564 68.5402 108.909 68.5402C109.277 68.5402 109.624 68.4964 110.487 68.007L137.957 52.3131C138.972 51.7361 139.278 51.1385 139.278 50.3916C139.278 49.6008 138.824 49.0032 137.957 48.5113L110.487 32.8174C109.624 32.328 109.277 32.2842 108.909 32.2842C108.564 32.2842 108.197 32.328 107.33 32.8174L53.1916 63.6488C52.8237 63.8626 52.5836 63.9476 52.3697 63.9476C52.1557 63.9476 51.8739 63.8626 51.506 63.6488L26.1757 49.1732C25.526 48.8101 25.0511 48.3181 24.7928 47.5918C22.7811 48.2331 22.001 49.1295 22.001 50.3478C22.001 51.1385 22.3897 51.7773 23.7752 52.5681L50.7911 68.007H50.7885ZM67.3362 23.2949L62.1021 26.2853L53.9483 21.631C53.1264 21.1622 52.7141 21.0978 52.3697 21.0978C52.0018 21.0978 51.6574 21.1416 50.7911 21.631L42.5955 26.2853L37.3823 23.2949L51.5504 15.2251C51.9209 15.0113 52.1583 14.9264 52.3723 14.9264C52.5862 14.9264 52.8263 15.0113 53.1942 15.2251L67.3388 23.2949H67.3362ZM51.5452 25.152C51.9157 24.9382 52.1531 24.8532 52.3671 24.8532C52.581 24.8532 52.8211 24.9408 53.189 25.152L58.6814 28.248L53.189 31.3647C52.8211 31.5784 52.581 31.6634 52.3671 31.6634C52.1531 31.6634 51.8713 31.5784 51.5034 31.3647L46.0528 28.248L51.5452 25.152ZM110.487 11.2946C109.624 10.8052 109.277 10.7614 108.909 10.7614C108.564 10.7614 108.197 10.8052 107.33 11.2946L53.1916 42.1261C52.8237 42.3398 52.5836 42.4248 52.3697 42.4248C52.1557 42.4248 51.8739 42.3373 51.506 42.1261L26.1757 27.6505C25.526 27.2873 25.0511 26.7953 24.7928 26.069C22.7811 26.7103 22.001 27.6067 22.001 28.825C22.001 29.6157 22.3897 30.2545 23.7752 31.0453L50.7911 46.4842C51.6574 46.9736 52.0018 47.0174 52.3697 47.0174C52.7141 47.0174 53.0846 46.9736 53.9483 46.4842L108.087 15.6501C108.458 15.4363 108.695 15.3513 108.909 15.3513C109.123 15.3513 109.405 15.4389 109.775 15.6501L135.103 30.1283C135.753 30.4915 136.227 30.9809 136.486 31.7072C138.497 31.0659 139.278 30.1695 139.278 28.9538C139.278 28.163 138.889 27.5242 137.506 26.7335L110.49 11.2946H110.487ZM110.487 22.056C109.624 21.5666 109.277 21.5228 108.909 21.5228C108.564 21.5228 108.197 21.5666 107.33 22.056L53.1916 52.8874C52.8237 53.1012 52.5836 53.1862 52.3697 53.1862C52.1557 53.1862 51.8739 53.1012 51.506 52.8874L26.1757 38.4118C25.526 38.0487 25.0511 37.5567 24.7928 36.8304C22.7811 37.4717 22.001 38.3681 22.001 39.5864C22.001 40.3771 22.3897 41.0159 23.7752 41.8067L50.7911 57.2456C51.6574 57.735 52.0018 57.7788 52.3697 57.7788C52.7141 57.7788 53.0846 57.735 53.9483 57.2456L108.087 26.4115C108.458 26.1977 108.695 26.1153 108.909 26.1153C109.123 26.1153 109.405 26.2003 109.775 26.4115L135.103 40.8897C135.753 41.2529 136.227 41.7423 136.486 42.4712C138.497 41.8298 139.278 40.9309 139.278 39.7152C139.278 38.9244 138.889 38.2856 137.506 37.4949L110.49 22.056H110.487ZM76.4189 18.128L71.1404 21.139L53.9457 11.2946C53.082 10.8052 52.7115 10.7614 52.3671 10.7614C51.9992 10.7614 51.6548 10.8052 50.7885 11.2946L33.5702 21.1158L28.3153 18.1254L51.5452 4.88616C51.9157 4.67237 52.1531 4.58737 52.3671 4.58737C52.581 4.58737 52.8211 4.67495 53.189 4.88616L76.4189 18.1254V18.128ZM110.487 0.533176C109.624 0.0412117 109.277 0 108.909 0C108.564 0 108.197 0.0412117 107.33 0.533176L80.5936 15.7557L53.9457 0.533176C53.082 0.0412117 52.7115 0 52.3671 0C51.9992 0 51.6548 0.0412117 50.7885 0.533176L23.3186 16.2271C22.3036 16.8015 21.9983 17.4016 21.9983 18.1486C21.9983 18.9393 22.4524 19.5369 23.3186 20.0263L50.7885 35.7202C51.6548 36.2122 51.9992 36.2534 52.3671 36.2534C52.7115 36.2534 53.082 36.2122 53.9457 35.7202L108.087 4.88873C108.458 4.67495 108.695 4.58995 108.909 4.58995C109.123 4.58995 109.405 4.67752 109.775 4.88873L135.103 19.3669C135.753 19.7301 136.227 20.2195 136.486 20.9458C138.497 20.3045 139.278 19.4081 139.278 18.1924C139.278 17.4016 138.889 16.7628 137.506 15.9721L110.487 0.533176ZM153.923 89.5529C154.701 87.4589 155.718 85.1768 156.365 83.7241C156.778 84.5998 158.051 87.5877 158.745 89.5529H153.923ZM151.606 95.6162C151.932 94.7405 152.428 93.4397 153.054 91.8788H159.567C160.021 93.0096 160.757 94.9105 161.015 95.6162H164C163.309 93.8003 159.285 83.4459 157.902 81.1406C157.513 80.9912 156.994 80.8856 156.472 80.8856C155.457 80.8856 154.852 81.2694 154.333 82.4002C152.298 86.9051 150.268 91.8582 148.882 95.6162H151.606ZM29.9147 95.6162H32.6622V81.1174C32.3804 81.0324 31.9917 80.968 31.4516 80.968C30.5201 80.968 29.9173 81.3518 29.9173 82.1426V95.6162H29.9147ZM149.876 83.4227C150.677 83.4227 151.069 82.8045 151.069 82.0138C151.069 81.5244 151.024 81.223 150.917 80.968H138.61C137.809 80.968 137.42 81.5862 137.42 82.377C137.42 82.8664 137.464 83.1677 137.571 83.4227H142.871V95.6136H145.618V83.4227H149.879H149.876ZM132.919 95.6162H135.666V81.1174C135.385 81.0324 134.996 80.968 134.456 80.968C133.524 80.968 132.922 81.3518 132.922 82.1426V95.6162H132.919ZM108.52 86.8819V83.4227H116.33C116.437 83.1677 116.481 82.8664 116.481 82.377C116.481 81.5862 116.092 80.968 115.291 80.968H107.351C106.313 80.968 105.773 81.4806 105.773 82.4208V95.6162H116.481V93.1616H108.52V89.3417H114.923C115.033 89.0842 115.074 88.7854 115.074 88.296C115.074 87.5052 114.686 86.8845 113.885 86.8845H108.52V86.8819ZM102.571 81.1174C102.289 81.0324 101.901 80.968 101.36 80.968C100.387 80.968 99.8236 81.3518 99.8236 82.1426V91.2607C98.0284 88.4222 93.7676 82.2714 92.9039 81.2024C92.4917 81.053 91.9959 80.968 91.5837 80.968C90.6104 80.968 89.8538 81.3518 89.8538 82.462V95.6162H92.6013V84.8754C94.7878 87.8865 98.3755 93.3316 99.8027 95.6162H102.571V81.1174ZM17.1321 81.1174C16.8504 81.0324 16.4616 80.968 15.9215 80.968C15.0343 80.968 14.3872 81.3518 14.3872 82.1426V95.6162H17.1348V89.2104H24.057V95.6162H26.8045V81.1174C26.5227 81.0324 26.134 80.968 25.5939 80.968C24.7067 80.968 24.0596 81.3518 24.0596 82.1426V86.7969H17.1374V81.1174H17.1321ZM118.49 94.3129C119.896 95.2324 122.19 96 124.697 96C128.611 96 130.732 94.2073 130.732 91.4951C130.732 89.0404 129.089 87.7165 126.148 87.1807L123.943 86.7737C122.299 86.4775 121.498 85.9212 121.498 84.8316C121.498 83.6777 122.276 82.9539 124.486 82.9539C126.973 82.9539 128.593 83.9559 129.115 84.5122C129.459 84.2572 129.978 83.5927 129.978 82.8483C129.978 82.3564 129.652 81.9932 129.201 81.6944C128.747 81.3982 127.406 80.5843 124.442 80.5843C120.397 80.5843 118.712 82.5908 118.712 85.0042C118.712 87.6933 120.958 88.8678 123.231 89.2748L125.394 89.6586C126.821 89.9136 127.815 90.3437 127.815 91.6676C127.815 92.8834 126.866 93.5891 124.744 93.5891C122.884 93.5891 121.457 93.1615 119.703 92.1596L118.493 94.3155L118.49 94.3129ZM63.4641 89.5529C64.2416 87.4589 65.2592 85.1768 65.9063 83.7241C66.3186 84.5998 67.5919 87.5877 68.2859 89.5529H63.4641ZM61.1497 95.6162C61.4759 94.7405 61.9716 93.4397 62.5978 91.8788H69.1104C69.5644 93.0096 70.3003 94.9105 70.5586 95.6162H73.5435C72.8495 93.8003 68.8286 83.4459 67.4458 81.1406C67.0544 80.9912 66.5351 80.8856 66.0159 80.8856C65.0009 80.8856 64.3956 81.2694 63.8763 82.4002C61.8412 86.9051 59.8086 91.8582 58.4257 95.6162H61.1497ZM2.68228 83.2733C2.89884 83.2321 3.56941 83.1445 4.91055 83.1445C7.96073 83.1445 8.76177 84.2985 8.76177 85.5786C8.76177 87.0751 7.83027 88.0564 4.97578 88.0564C3.65552 88.0564 3.00843 87.9715 2.68228 87.8865V83.2733ZM0 95.6162H2.68228V90.2355C3.00843 90.2793 3.97906 90.3849 4.88707 90.3849C5.25497 90.3849 5.73246 90.3643 6.12123 90.3231C6.94314 91.392 8.73828 94.6787 9.19229 95.6188H12.2868C11.3345 93.7617 9.99332 91.3276 8.80351 89.7049C10.5126 88.958 11.5719 87.6546 11.5719 85.5631C11.5719 82.6577 9.3671 80.8212 4.97578 80.8212C2.72664 80.8212 1.62294 80.95 1.1898 81.035C0.540109 81.1612 0 81.5244 0 82.4233V95.6188L0 95.6162ZM43.9315 95.6162C44.041 93.6509 44.3855 86.9695 44.5159 85.0042C45.5544 86.9901 47.3261 90.6399 47.8896 91.9638C48.1923 92.0926 48.6463 92.1776 48.9934 92.1776C49.3404 92.1776 49.7944 92.09 50.0944 91.9638C50.7233 90.5755 52.8002 86.3075 53.4708 84.9604C53.5334 86.2406 54.0318 94.2691 54.097 95.6162H56.7793C56.6488 93.2053 56.1087 83.7009 55.9574 81.2694C55.6103 81.12 55.0702 80.9706 54.3553 80.9706C53.3168 80.9706 52.6697 81.3776 52.2575 82.2302C51.673 83.4047 49.8779 87.1215 49.056 88.8498L45.3378 81.272C44.9491 81.0994 44.3855 80.9732 43.8454 80.9732C42.7625 80.9732 42.0502 81.5914 41.9641 82.7247C41.8128 84.6024 41.3379 93.3779 41.2283 95.6214H43.9315V95.6162ZM84.3379 93.1616C83.9047 93.3753 83.1037 93.5453 82.4331 93.5453C79.1246 93.5453 76.8546 91.9432 76.8546 88.3166C76.8546 85.0274 78.9524 83.0415 81.9817 83.0415C83.9491 83.0415 85.3763 83.8323 85.9399 84.471C86.2843 84.1929 86.9784 83.5747 86.9784 82.7402C86.9784 82.3564 86.741 81.9494 86.2217 81.6094C85.6816 81.2256 84.2961 80.5843 82.0261 80.5843C77.4182 80.5843 73.9793 83.5515 73.9793 88.314C73.9793 93.3934 77.46 96 82.394 96C84.21 96 86.026 95.5312 86.9784 94.7843V88.806C86.9784 87.8659 86.4592 87.3533 85.4442 87.3533H80.9667C80.8598 87.7165 80.8154 88.0359 80.8154 88.3552C80.8154 89.3392 81.2277 89.7229 82.0913 89.7229H84.3405V93.159L84.3379 93.1616Z" fill="#314452"/>
</g>
<defs>
<clipPath id="clip0_200_235">
<rect width="164" height="96" fill="white"/>
</clipPath>
</defs>
</svg>
